<svg xmlns="http://www.w3.org/2000/svg" xmlns:xlink="http://www.w3.org/1999/xlink" width="57"
  height="57" viewBox="0 0 57 57">
  <defs>
    <clipPath id="clip-path">
      <rect id="Rectangle_9154" data-name="Rectangle 9154" width="57" height="57"
        transform="translate(0.023 -0.059)" fill="none" />
    </clipPath>
  </defs>
  <g id="Group_10044" data-name="Group 10044" transform="translate(-0.023 0.059)">
    <g id="Group_10043" data-name="Group 10043" transform="translate(0 0)"
      clip-path="url(#clip-path)">
      <path id="Path_20175" data-name="Path 20175"
        d="M135.2,19.64,138.7,46.7,135.2,71.993H124.582a4.437,4.437,0,0,1-4.432-4.432V24.072a4.437,4.437,0,0,1,4.432-4.432Z"
        transform="translate(-106.812 -17.34)" fill="#80d4ff" />
      <path id="Path_20176" data-name="Path 20176"
        d="M271.045,24.072V67.56a4.437,4.437,0,0,1-4.432,4.432H256V19.64h10.613A4.437,4.437,0,0,1,271.045,24.072Z"
        transform="translate(-227.617 -17.34)" fill="#66b3ff" />
      <path id="Path_20177" data-name="Path 20177"
        d="M113.661,3.322h11.494l1.661-1.661L125.155,0H113.661a4.807,4.807,0,0,0-4.8,4.8V51.9a4.807,4.807,0,0,0,4.8,4.8h11.494l1.01-1.661-1.01-1.661H113.661a1.48,1.48,0,0,1-1.478-1.478V4.8A1.48,1.48,0,0,1,113.661,3.322Z"
        transform="translate(-96.772 0.125)" fill="#574d8c" />
      <path id="Path_20178" data-name="Path 20178"
        d="M272.3,4.8V51.9a4.807,4.807,0,0,1-4.8,4.8H256V53.38h11.495a1.48,1.48,0,0,0,1.478-1.478V4.8a1.48,1.48,0,0,0-1.478-1.478H256V0h11.495a4.807,4.807,0,0,1,4.8,4.8"
        transform="translate(-227.617 0.125)" fill="#3d2866" />
      <path id="Path_20179" data-name="Path 20179"
        d="M212.222,422l1.661,1.661-1.661,1.661h-3.791a1.661,1.661,0,1,1,0-3.322Z"
        transform="translate(-183.839 -375.139)" fill="#574d8c" />
      <path id="Path_20180" data-name="Path 20180"
        d="M261.452,423.661a1.669,1.669,0,0,1-1.661,1.661H256V422h3.791a1.669,1.669,0,0,1,1.661,1.661"
        transform="translate(-227.617 -375.139)" fill="#3d2866" />
      <path id="Path_20181" data-name="Path 20181"
        d="M28.351,60l2.676,11.736L28.351,88.667a1.659,1.659,0,0,1-1.209-.555c-.025-.029-2.42-2.714-4.358-4.856H8.469A8.478,8.478,0,0,1,0,74.788V68.469A8.478,8.478,0,0,1,8.469,60Z"
        transform="translate(0.032 -53.23)" fill="#e6eaff" />
      <path id="Path_20182" data-name="Path 20182"
        d="M284.351,68.469v6.319a8.469,8.469,0,0,1-8.267,8.467H261.63c-1.939,2.142-4.334,4.827-4.359,4.856a1.663,1.663,0,0,1-1.24.556H256V60h19.882a8.478,8.478,0,0,1,8.469,8.469"
        transform="translate(-227.617 -53.23)" fill="#ccd5ff" />
      <path id="Path_20183" data-name="Path 20183"
        d="M91.491,122.519a1.669,1.669,0,0,0-2.269-.608l-.432.25v-.5a1.661,1.661,0,0,0-3.322,0v.463l-.37-.214a1.661,1.661,0,1,0-1.661,2.877l.4.232-.37.214a1.661,1.661,0,1,0,1.661,2.877l.338-.2v.391a1.661,1.661,0,0,0,3.322,0v-.427l.4.232a1.661,1.661,0,1,0,1.661-2.877l-.37-.214.4-.232a1.669,1.669,0,0,0,.608-2.269"
        transform="translate(-73.425 -106.585)" fill="#ff4d88" />
      <path id="Path_20184" data-name="Path 20184"
        d="M219.443,120.01l1.008,3.946-1.008,6.019a1.66,1.66,0,0,1-1.63-1.66v-.427l-.4.233a1.662,1.662,0,0,1-1.661-2.878l.37-.213-.4-.231a1.662,1.662,0,0,1,1.661-2.878l.432.25v-.5a1.66,1.66,0,0,1,1.63-1.66"
        transform="translate(-191.058 -106.594)" fill="#ff4d88" />
      <path id="Path_20185" data-name="Path 20185"
        d="M260.311,127.5a1.67,1.67,0,0,1-2.269.608l-.339-.2v.391a1.661,1.661,0,0,1-1.661,1.661h-.031V120h.031a1.661,1.661,0,0,1,1.661,1.661v.463l.37-.214a1.662,1.662,0,0,1,1.661,2.878l-.4.231.37.213a1.67,1.67,0,0,1,.608,2.27"
        transform="translate(-227.626 -106.585)" fill="#e62e6b" />
      <path id="Path_20186" data-name="Path 20186"
        d="M355.491,122.519a1.669,1.669,0,0,0-2.269-.608l-.432.25v-.5a1.661,1.661,0,0,0-3.322,0v.463l-.37-.214a1.661,1.661,0,0,0-1.661,2.877l.4.232-.37.214a1.661,1.661,0,0,0,1.661,2.877l.338-.2v.391a1.661,1.661,0,1,0,3.322,0v-.427l.4.232a1.661,1.661,0,1,0,1.661-2.877l-.37-.214.4-.232A1.669,1.669,0,0,0,355.491,122.519Z"
        transform="translate(-308.187 -106.585)" fill="#e62e6b" />
    </g>
  </g>
</svg>