<svg xmlns="http://www.w3.org/2000/svg" xmlns:xlink="http://www.w3.org/1999/xlink" width="66"
  height="66" viewBox="0 0 66 66">
  <defs>
    <clipPath id="clip-path">
      <rect id="Rectangle_9156" data-name="Rectangle 9156" width="66" height="66"
        transform="translate(0.242 0.171)" fill="none" />
    </clipPath>
  </defs>
  <g id="Group_10046" data-name="Group 10046" transform="translate(-0.242 -0.171)">
    <g id="Group_10045" data-name="Group 10045" transform="translate(0 0)"
      clip-path="url(#clip-path)">
      <path id="Path_20187" data-name="Path 20187"
        d="M89.134,173.092h6.594a.693.693,0,0,1,.691.691v19.864a.693.693,0,0,1-.691.691H89.134a.693.693,0,0,1-.691-.691V173.783A.693.693,0,0,1,89.134,173.092Z"
        transform="translate(-76.07 -149.256)" fill="#c6ea94" fill-rule="evenodd" />
      <path id="Path_20188" data-name="Path 20188"
        d="M335.946,173.092h6.594a.693.693,0,0,1,.691.691v19.864a.693.693,0,0,1-.691.691h-6.594a.693.693,0,0,1-.691-.691V173.783a.693.693,0,0,1,.691-.691"
        transform="translate(-288.758 -149.256)" fill="#c6ea94" fill-rule="evenodd" />
      <path id="Path_20189" data-name="Path 20189"
        d="M192.563,0l2.074,5.266,5.649.345-4.367,3.6,1.417,5.479-4.773-3.041-4.773,3.041,1.417-5.479-4.367-3.6,5.649-.345Z"
        transform="translate(-159.14 -0.096)" fill="#f5b945" fill-rule="evenodd" />
      <path id="Path_20190" data-name="Path 20190"
        d="M214.155,133.091h6.594a.693.693,0,0,1,.691.691v21.247a.693.693,0,0,1-.691.691h-6.594a.693.693,0,0,1-.691-.691V133.782A.693.693,0,0,1,214.155,133.091Z"
        transform="translate(-183.806 -114.786)" fill="#fdcd56" fill-rule="evenodd" />
      <path id="Path_20191" data-name="Path 20191" d="M101.6,287.749a26.581,26.581,0,0,1-53.162,0Z"
        transform="translate(-41.601 -248.061)" fill="#66d4f1" fill-rule="evenodd" />
      <path id="Path_20192" data-name="Path 20192"
        d="M151.38,314.327l-.2,0-.2,0c-4.006-.1-7.576-3.151-10.126-8.037-2.488-4.767-4.028-11.322-4.036-18.541h1.936c.008,6.914,1.462,13.15,3.81,17.649,2.256,4.323,5.306,7,8.617,7s6.361-2.674,8.617-7c2.347-4.5,3.8-10.735,3.81-17.649h1.936c-.008,7.219-1.549,13.774-4.036,18.541-2.55,4.886-6.12,7.939-10.126,8.037"
        transform="translate(-117.757 -248.061)" fill="#4fc0e8" fill-rule="evenodd" />
      <path id="Path_20193" data-name="Path 20193"
        d="M134.1,387.462q-.656.782-1.37,1.511a42.133,42.133,0,0,0-8.033-2.364,59.184,59.184,0,0,0-21.938,0,42.133,42.133,0,0,0-8.033,2.364q-.713-.729-1.37-1.511a43.176,43.176,0,0,1,9.032-2.75,61.011,61.011,0,0,1,22.679,0A43.184,43.184,0,0,1,134.1,387.462Z"
        transform="translate(-80.301 -330.701)" fill="#4fc0e8" fill-rule="evenodd" />
      <rect id="Rectangle_9155" data-name="Rectangle 9155" width="1.936" height="25.593"
        transform="translate(32.455 39.688)" fill="#4fc0e8" />
      <path id="Path_20194" data-name="Path 20194"
        d="M1.383,257.233h63.6a1.385,1.385,0,0,1,1.383,1.383V270.2a1.385,1.385,0,0,1-1.383,1.383H1.383A1.385,1.385,0,0,1,0,270.2V258.616a1.385,1.385,0,0,1,1.383-1.383"
        transform="translate(0.144 -221.764)" fill="#f4f6f8" fill-rule="evenodd" />
      <path id="Path_20195" data-name="Path 20195"
        d="M376.215,257.233v14.35h12.967a1.385,1.385,0,0,0,1.383-1.383V258.616a1.385,1.385,0,0,0-1.383-1.383Z"
        transform="translate(-324.054 -221.764)" fill="#fdcd56" fill-rule="evenodd" />
      <path id="Path_20196" data-name="Path 20196"
        d="M400.579,280.226l1.445,1.445a.968.968,0,1,1-1.368,1.369l-1.445-1.445a4.406,4.406,0,1,1,1.369-1.368Zm-3.726-4.829a2.472,2.472,0,1,0,2.472,2.472,2.472,2.472,0,0,0-2.472-2.472"
        transform="translate(-338.04 -235.748)" fill="#f4f6f8" fill-rule="evenodd" />
    </g>
  </g>
</svg>